<svg width="263" height="263" viewBox="0 0 263 263" fill="none" xmlns="http://www.w3.org/2000/svg">
<path d="M136.979 8.21875C67.3496 8.21875 10.958 64.6103 10.958 134.24C10.958 190.007 47.0328 237.105 97.1234 253.795C103.424 254.902 105.78 251.121 105.78 247.812C105.78 244.82 105.627 234.903 105.627 224.339C73.9684 230.169 65.7825 216.624 63.2621 209.545C61.8375 205.918 55.7009 194.73 50.3313 191.738C45.926 189.371 39.625 183.541 50.1779 183.388C60.1061 183.234 67.1962 192.527 69.5632 196.308C80.905 215.375 99.0192 210.005 106.263 206.696C107.358 198.51 110.668 192.998 114.295 189.842C86.2527 186.697 56.9611 175.826 56.9611 127.621C56.9611 113.923 61.8375 102.581 69.87 93.7595C68.6098 90.6035 64.2045 77.6836 71.1302 60.3585C71.1302 60.3585 81.6831 57.0491 105.791 73.2784C115.873 70.4402 126.579 69.0265 137.297 69.0265C148.003 69.0265 158.72 70.4511 168.802 73.2784C192.91 56.8957 203.452 60.3585 203.452 60.3585C210.389 77.6836 205.972 90.6035 204.712 93.7595C212.745 102.581 217.632 113.758 217.632 127.621C217.632 175.98 188.176 186.686 160.134 189.842C164.703 193.787 168.637 201.348 168.637 213.161C168.637 230.015 168.484 243.56 168.484 247.812C168.484 251.121 170.851 255.066 177.141 253.806C226.936 237.105 263 189.842 263 134.24C263 64.6103 206.608 8.21875 136.979 8.21875Z" fill="black"/>
</svg>
